<?xml version="1.0" encoding="utf-8"?>
<!-- Generator: Adobe Illustrator 23.0.4, SVG Export Plug-In . SVG Version: 6.00 Build 0)  -->
<svg version="1.1" id="Layer_1" xmlns="http://www.w3.org/2000/svg" xmlns:xlink="http://www.w3.org/1999/xlink" x="0px" y="0px"
	 viewBox="0 0 612 792" style="enable-background:new 0 0 612 792;" xml:space="preserve">
<g>
	<path d="M384.39,299.41c0.12,8.14-2.63,19-5.93,29.71c-2.9,9.41-6.55,18.61-9.14,28.11c-4.91,17.99-7.16,36.34-6.41,55.07
		c0.44,10.85,0.51,21.73,0.12,32.58c-0.38,10.55-3.06,20.62-10.43,28.63c-9.48,10.3-20.98,16.49-35.45,15.57
		c-19.67-1.25-36.67-16.11-40.71-35.58c-3.1-14.95-0.78-28.93,7.7-41.78c3.05-4.62,6.05-9.27,8.83-14.05
		c4.97-8.54,7.16-17.93,7.33-27.72c0.27-14.78-1.95-29.16-7.88-42.83c-4.11-9.46-10.39-17.56-16.1-26.04
		c-6.25-9.28-12.08-18.85-17.95-28.39c-2.85-4.64-3.82-9.87-3.95-15.28c-0.3-12.25,2.39-23.66,9.78-33.63
		c7.74-10.45,18.32-15.24,31.24-15.03c10.23,0.17,19.69,3.28,28.76,7.7c16.29,7.93,30.94,18.08,42.67,32.09
		C378.41,262.3,384.56,279.09,384.39,299.41z"/>
	<path d="M79.98,479.96c-0.28-8.96-0.17-17.95-0.91-26.87c-1.35-16.24-4.88-32.03-10.64-47.34c-4.11-10.93-7.41-22.15-9.19-33.74
		c-3.21-20.83,1.07-39.98,14.02-56.66c15.57-20.06,35.96-33.48,60.15-40.98c9.54-2.96,19.33-3.29,28.87,0.44
		c11.18,4.37,18.14,12.86,22.3,23.78c3.72,9.75,4.96,19.88,2.54,30.1c-0.88,3.72-2.9,7.24-4.72,10.67
		c-7.23,13.58-16.63,25.75-25.18,38.47c-8.37,12.46-12.71,26.36-14.24,41.24c-0.99,9.62-1.07,19.15,1.28,28.6
		c1.73,6.95,4.9,13.22,8.76,19.19c4.1,6.34,8.61,12.46,11.26,19.63c6.36,17.24,3.88,40.44-11.35,53.96
		c-12.81,11.37-27.67,15.86-44.15,9.56c-17.24-6.6-27.35-19.45-28.79-38.12c-0.82-10.6-0.64-21.27-0.91-31.91
		C79.37,479.98,79.68,479.97,79.98,479.96z"/>
	<path d="M288.66,180.13c-0.3,7.5-2.39,14.91-8.46,20.68c-6.63,6.3-15.34,5.83-21.25-1.14c-3.97-4.68-5.58-10.27-5.79-16.31
		c-0.27-7.9,1.64-15.14,6.87-21.26c7.19-8.4,17.98-7.72,24.12,1.49C287.37,168.43,288.57,173.82,288.66,180.13z"/>
	<path d="M189.52,245.47c-0.1,6.81-1.66,13.16-6.4,18.38c-5.48,6.01-13.52,6.56-19.75,1.36c-4.91-4.09-7.52-9.51-8.7-15.65
		c-1.58-8.23-0.68-16.11,4.3-23.07c6.21-8.67,16.7-8.97,23.62-0.84C187.45,231.34,189.39,238.07,189.52,245.47z"/>
	<path d="M294.7,183.75c0.26-6.45,2.05-12.28,6.96-16.78c5.32-4.87,12.57-4.44,17.32,0.97c7.21,8.21,6.16,24-2.08,31.19
		c-5.87,5.12-13.25,4.4-17.99-1.79C295.85,193.33,294.79,188.69,294.7,183.75z"/>
	<path d="M147.92,247.21c-0.1,4.85-1.08,9.23-3.78,13.1c-4.9,7.01-13.3,7.7-19.27,1.57c-7.29-7.48-8.13-21.4-1.8-29.66
		c4.73-6.17,12.48-6.82,18.14-1.47C145.99,235.27,147.69,241.06,147.92,247.21z"/>
	<path d="M353.84,196.94c-0.24,4.87-1.77,10.06-6.09,14.09c-5.24,4.9-12.43,4.41-17.01-1.13c-6.31-7.66-5.12-21.21,2.43-27.68
		c5.59-4.79,13.15-3.59,17.43,2.76C352.66,188.02,353.82,192.05,353.84,196.94z"/>
	<path d="M88.76,259.63c0.18-4.73,1.32-9.14,4.57-12.76c4.43-4.95,11.08-5.38,16.13-1.08c7.61,6.48,8.72,20.2,2.27,27.84
		c-5.24,6.21-13.71,5.67-18.86-1.22C90.05,268.62,88.92,264.29,88.76,259.63z"/>
	<path d="M353.35,218.17c0-6.12,1.5-10.83,5.24-14.62c5.16-5.23,12.39-4.59,16.66,1.37c5.02,7.02,4.12,18.55-1.94,24.69
		c-5.21,5.28-12.54,4.69-16.79-1.4C354.25,224.95,353.25,221.28,353.35,218.17z"/>
	<path d="M89.27,282.02c0.04,3.18-1.05,7.02-3.63,10.36c-3.91,5.06-10.21,5.8-15.19,1.82c-7.37-5.88-8.5-19.82-2.19-26.82
		c4.37-4.85,10.71-5.16,15.43-0.63C87.71,270.61,89.29,275.51,89.27,282.02z"/>
	<path d="M67.4,308.66c0.01,2.15-1.14,5.89-4.06,8.93c-3.86,4.02-9.31,4.27-13.59,0.7c-6.31-5.25-7.5-16.17-2.46-22.68
		c4.11-5.31,10.79-5.75,15.51-0.97C66.08,297.95,67.4,302.06,67.4,308.66z"/>
	<path d="M375.23,243.79c0-5.36,1.35-9.39,4.55-12.66c4.77-4.88,11.54-4.41,15.64,1.03c4.88,6.47,3.77,17.09-2.33,22.39
		c-4.47,3.88-10.29,3.53-14.19-0.93C376.24,250.59,375.16,246.97,375.23,243.79z"/>
</g>
</svg>
